<svg width="1768" height="3431" viewBox="0 0 1768 3431" fill="none" xmlns="http://www.w3.org/2000/svg">
<g clip-path="url(#clip0_2_54)">
<g clip-path="url(#clip1_2_54)" filter="url(#filter0_d_2_54)">
<rect width="1728" height="1117" transform="translate(20 -58)" fill="#8F1D14"/>
<g filter="url(#filter1_f_2_54)">
<path fill-rule="evenodd" clip-rule="evenodd" d="M760.104 -67.0738C823.27 -90.3336 849.9 -192.716 917.155 -189.945C970.404 -187.75 978.851 -104.874 1002.45 -57.0867C1022.65 -16.1613 1030.68 27.9218 1045.96 70.9301C1063.12 119.244 1116.23 165.293 1098.55 213.422C1079.94 264.091 1003.07 261.916 962.667 297.712C930.477 326.234 923.663 377.384 887.402 400.51C850.401 424.107 803.988 427.133 760.104 426.897C716.341 426.661 665.775 428.661 633.465 399.143C599.916 368.494 620.656 305.392 590.195 271.672C556.735 234.633 485.555 246.819 458.168 205.089C432.529 166.024 428.402 104.639 455.662 66.6868C486.26 24.0868 558.915 41.2772 599.603 8.17818C628.942 -15.689 616.121 -75.6476 650.365 -91.703C684.74 -107.82 724.477 -53.9546 760.104 -67.0738Z" fill="#F89D13"/>
</g>
<g filter="url(#filter2_f_2_54)">
<path fill-rule="evenodd" clip-rule="evenodd" d="M176.104 273.926C239.27 250.666 265.9 148.284 333.155 151.055C386.404 153.25 394.851 236.126 418.445 283.913C438.651 324.839 446.676 368.922 461.956 411.93C479.121 460.244 532.227 506.293 514.551 554.422C495.942 605.091 419.068 602.916 378.667 638.712C346.477 667.234 339.663 718.384 303.402 741.51C266.401 765.107 219.988 768.133 176.104 767.897C132.341 767.661 81.7751 769.661 49.4648 740.143C15.9159 709.494 36.6556 646.392 6.19476 612.672C-27.2646 575.633 -98.4448 587.819 -125.832 546.089C-151.471 507.024 -155.598 445.639 -128.338 407.687C-97.7401 365.087 -25.0848 382.277 15.6027 349.178C44.9417 325.311 32.1206 265.352 66.3645 249.297C100.74 233.18 140.477 287.045 176.104 273.926Z" fill="#F89D13"/>
</g>
<g filter="url(#filter3_f_2_54)">
<path fill-rule="evenodd" clip-rule="evenodd" d="M685.311 680.088C768.085 641.961 755.336 487.359 842.437 460.552C895.395 444.254 885.619 560.485 903.276 613.006C916.293 651.722 939.232 689.884 933.114 730.268C927.2 769.311 878.975 790.528 870.538 829.105C861.986 868.208 895.964 907.987 885.78 946.697C874.857 988.219 854.044 1040.5 812.292 1050.51C766.769 1061.42 731.383 1003.06 685.311 994.76C649.572 988.322 608.903 1028.43 578.603 1008.41C546.585 987.261 562.294 933.549 542.698 900.558C526.475 873.244 495.539 859.333 475.443 834.729C445.759 798.385 378.384 764.315 395.847 720.76C415.078 672.792 499.464 702.58 540.839 671.616C568.591 650.847 550.634 576.995 585.238 579.025C633.167 581.835 641.704 700.175 685.311 680.088Z" fill="#FBB901"/>
</g>
<g filter="url(#filter4_f_2_54)">
<path fill-rule="evenodd" clip-rule="evenodd" d="M1171.31 116.088C1254.08 77.9607 1241.34 -76.6409 1328.44 -103.448C1381.4 -119.746 1371.62 -3.51472 1389.28 49.0062C1402.29 87.7218 1425.23 125.884 1419.11 166.268C1413.2 205.311 1364.98 226.528 1356.54 265.105C1347.99 304.208 1381.96 343.987 1371.78 382.697C1360.86 424.219 1340.04 476.497 1298.29 486.508C1252.77 497.422 1217.38 439.06 1171.31 430.76C1135.57 424.322 1094.9 464.425 1064.6 444.41C1032.59 423.261 1048.29 369.549 1028.7 336.558C1012.48 309.244 981.539 295.333 961.443 270.729C931.759 234.385 864.384 200.315 881.847 156.76C901.078 108.792 985.464 138.58 1026.84 107.616C1054.59 86.8468 1036.63 12.9953 1071.24 15.0247C1119.17 17.8355 1127.7 136.175 1171.31 116.088Z" fill="#FBB901"/>
</g>
<g filter="url(#filter5_f_2_54)">
<path fill-rule="evenodd" clip-rule="evenodd" d="M1077.58 609.616C1148.97 585.15 1131.91 419.269 1206.95 427.281C1272.57 434.286 1126.03 573.479 1173.02 619.805C1228.53 674.522 1406.03 543.524 1403.91 621.436C1401.59 706.596 1219.21 647.296 1170.37 717.098C1142.24 757.302 1245.4 787.901 1253.59 836.281C1262.06 886.315 1261.78 961.553 1215.17 981.619C1167.37 1002.2 1129.44 916.425 1077.58 912.055C1032.04 908.218 977.839 996.123 950.727 959.335C913.614 908.976 992.791 836.523 977.257 775.924C969.579 745.97 911.49 763.298 893.948 737.832C877.859 714.477 870.835 671.33 893.146 653.823C925.071 628.77 991.87 679.063 1013 644.414C1038.27 602.967 942.13 526.415 984.864 503.39C1026.77 480.814 1032.56 625.046 1077.58 609.616Z" fill="#FBB901"/>
</g>
<g filter="url(#filter6_f_2_54)">
<path fill-rule="evenodd" clip-rule="evenodd" d="M282.083 415.256C322.564 438.025 329.236 497.396 368.347 522.445C400.945 543.322 445.339 528.214 481.203 542.782C531.489 563.207 627.656 570.843 619.658 624.526C609.512 692.616 497.665 688.992 451.772 740.306C432.131 762.267 465.703 814.395 438.901 826.634C403.628 842.74 349.851 764.834 327.96 796.841C277.82 870.153 349.327 997.901 282.083 1055.93C239.603 1092.58 222.241 955.095 170.966 932.312C117.208 908.426 42.0981 966.582 -3.26953 929.136C-44.6791 894.957 -33.7638 824.216 -23.9542 771.426C-15.1338 723.959 39.8329 695.773 48.9063 648.354C58.4676 598.386 12.6634 547.535 28.1586 499.077C43.6713 450.565 83.3605 405.321 131.726 389.355C180.633 373.211 237.193 390.008 282.083 415.256Z" fill="#FB1001"/>
</g>
<g filter="url(#filter7_f_2_54)">
<path fill-rule="evenodd" clip-rule="evenodd" d="M1568.08 180.256C1608.56 203.025 1615.24 262.396 1654.35 287.445C1686.94 308.322 1731.34 293.214 1767.2 307.782C1817.49 328.207 1913.66 335.843 1905.66 389.526C1895.51 457.616 1783.66 453.992 1737.77 505.306C1718.13 527.267 1751.7 579.395 1724.9 591.634C1689.63 607.74 1635.85 529.834 1613.96 561.841C1563.82 635.153 1635.33 762.901 1568.08 820.927C1525.6 857.582 1508.24 720.095 1456.97 697.312C1403.21 673.426 1328.1 731.582 1282.73 694.136C1241.32 659.957 1252.24 589.216 1262.05 536.426C1270.87 488.959 1325.83 460.773 1334.91 413.354C1344.47 363.386 1298.66 312.535 1314.16 264.077C1329.67 215.565 1369.36 170.321 1417.73 154.355C1466.63 138.211 1523.19 155.008 1568.08 180.256Z" fill="#FB1001"/>
</g>
<g filter="url(#filter8_f_2_54)">
<path fill-rule="evenodd" clip-rule="evenodd" d="M1514.36 681.14C1544.07 695.946 1568.64 640.45 1601.46 635.494C1642.47 629.301 1687.67 628.711 1723.53 649.555C1760.68 671.152 1800.09 708.115 1800.33 751.089C1800.58 797.064 1732.82 819.114 1724.72 864.371C1716.01 913.034 1786.73 970.383 1754.4 1007.78C1721.28 1046.08 1651.89 1021.21 1604.47 1003.46C1565.19 988.764 1553.3 902.37 1514.36 917.944C1445.5 945.488 1451.92 1070.2 1381.26 1092.74C1338.43 1106.41 1325.55 1024 1302.04 985.679C1280.68 950.855 1268.76 912.647 1248.88 876.953C1221.81 828.34 1147.57 789.615 1163.12 736.189C1179.17 681.028 1273.13 697.108 1313.2 655.933C1347.81 620.356 1323 515.089 1372.25 521.26C1443.9 530.238 1449.74 648.931 1514.36 681.14Z" fill="#FFE9A6"/>
</g>
<g filter="url(#filter9_f_2_54)">
<path fill-rule="evenodd" clip-rule="evenodd" d="M219.362 173.14C249.072 187.946 273.639 132.45 306.462 127.494C347.475 121.301 392.668 120.711 428.527 141.555C465.681 163.152 505.089 200.115 505.327 243.089C505.582 289.064 437.816 311.114 429.718 356.371C421.01 405.034 491.728 462.383 459.397 499.78C426.283 538.082 356.887 513.211 309.467 495.463C270.193 480.764 258.298 394.37 219.362 409.944C150.502 437.488 156.919 562.203 86.2621 584.744C43.4295 598.408 30.5515 516.001 7.04166 477.679C-14.3216 442.855 -26.244 404.647 -46.1194 368.953C-73.1888 320.34 -147.428 281.615 -131.882 228.189C-115.831 173.028 -21.869 189.108 18.195 147.933C52.8125 112.356 27.9958 7.08872 77.2503 13.2603C148.898 22.2378 154.735 140.931 219.362 173.14Z" fill="#FFE9A6"/>
</g>
<g filter="url(#filter10_f_2_54)">
<path fill-rule="evenodd" clip-rule="evenodd" d="M1444.59 15.3056C1488.42 22.1052 1516.39 -50.5107 1560.56 -46.4794C1599.96 -42.8842 1632.53 -3.49065 1646.04 33.6896C1659.7 71.2992 1639.51 112.06 1632.48 151.453C1627.52 179.263 1603.45 204.908 1610.62 232.232C1626.4 292.366 1711.83 334.949 1696.44 395.182C1684.56 441.657 1607.29 435.262 1559.39 432.715C1517.05 430.463 1485.78 391.805 1444.59 381.788C1414.83 374.551 1376.11 403.786 1353.86 382.735C1328.36 358.598 1358 308.278 1337.09 280.065C1317.32 253.387 1268.59 265.009 1247.56 239.308C1226.78 213.911 1220.05 176.723 1226.17 144.485C1232.3 112.149 1269.61 94.7008 1280.87 63.776C1298.42 15.5845 1260.71 -70.8049 1309.89 -85.3648C1364.32 -101.479 1388.5 6.60388 1444.59 15.3056Z" fill="#FDF10B"/>
</g>
<g filter="url(#filter11_f_2_54)">
<path fill-rule="evenodd" clip-rule="evenodd" d="M361.346 5.65666C396.204 15.8456 444.291 -9.41795 468.231 17.8902C496.351 49.9655 451.702 113.632 482.174 143.482C519.206 179.759 651.142 130.02 631.789 178.112C605.246 244.07 442.054 186.111 436.496 256.991C429.833 341.966 599.639 354.752 611.316 439.183C618.18 488.81 511.356 437.205 463.446 451.85C424.59 463.727 391.12 543.239 361.346 515.592C312.212 469.966 351.777 381.073 322.345 320.826C313.742 303.216 283.968 318.279 264.401 317.15C198.868 313.369 117.713 351.622 70.2474 306.28C37.827 275.311 124.503 231.219 127.621 186.493C131.55 130.133 69.8747 76.2231 89.9653 23.4197C108.126 -24.3107 168.481 -51.4967 219.44 -54.8323C271.402 -58.2334 311.365 -8.95307 361.346 5.65666Z" fill="#EB0F0F"/>
</g>
<g filter="url(#filter12_f_2_54)">
<path fill-rule="evenodd" clip-rule="evenodd" d="M877.346 211.657C912.204 221.846 960.291 196.582 984.231 223.89C1012.35 255.965 967.702 319.632 998.174 349.482C1035.21 385.759 1167.14 336.02 1147.79 384.112C1121.25 450.07 958.054 392.111 952.496 462.991C945.833 547.966 1115.64 560.752 1127.32 645.183C1134.18 694.81 1027.36 643.205 979.446 657.85C940.59 669.727 907.12 749.239 877.346 721.592C828.212 675.966 867.777 587.073 838.345 526.826C829.742 509.216 799.968 524.279 780.401 523.15C714.868 519.369 633.713 557.622 586.247 512.28C553.827 481.311 640.503 437.219 643.621 392.493C647.55 336.133 585.875 282.223 605.965 229.42C624.126 181.689 684.481 154.503 735.44 151.168C787.402 147.767 827.365 197.047 877.346 211.657Z" fill="#EB0F0F"/>
</g>
</g>
<g clip-path="url(#clip2_2_54)" filter="url(#filter13_d_2_54)">
<rect width="1728" height="1117" transform="translate(20 1157)" fill="#8F1D14"/>
<g filter="url(#filter14_f_2_54)">
<path fill-rule="evenodd" clip-rule="evenodd" d="M760.104 1147.93C823.27 1124.67 849.9 1022.28 917.155 1025.06C970.404 1027.25 978.851 1110.13 1002.45 1157.91C1022.65 1198.84 1030.68 1242.92 1045.96 1285.93C1063.12 1334.24 1116.23 1380.29 1098.55 1428.42C1079.94 1479.09 1003.07 1476.92 962.667 1512.71C930.477 1541.23 923.663 1592.38 887.402 1615.51C850.401 1639.11 803.988 1642.13 760.104 1641.9C716.341 1641.66 665.775 1643.66 633.465 1614.14C599.916 1583.49 620.656 1520.39 590.195 1486.67C556.735 1449.63 485.555 1461.82 458.168 1420.09C432.529 1381.02 428.402 1319.64 455.662 1281.69C486.26 1239.09 558.915 1256.28 599.603 1223.18C628.942 1199.31 616.121 1139.35 650.365 1123.3C684.74 1107.18 724.477 1161.05 760.104 1147.93Z" fill="#F89D13"/>
</g>
<g filter="url(#filter15_f_2_54)">
<path fill-rule="evenodd" clip-rule="evenodd" d="M176.104 1488.93C239.27 1465.67 265.9 1363.28 333.155 1366.06C386.404 1368.25 394.851 1451.13 418.445 1498.91C438.651 1539.84 446.676 1583.92 461.956 1626.93C479.121 1675.24 532.227 1721.29 514.551 1769.42C495.942 1820.09 419.068 1817.92 378.667 1853.71C346.477 1882.23 339.663 1933.38 303.402 1956.51C266.401 1980.11 219.988 1983.13 176.104 1982.9C132.341 1982.66 81.7751 1984.66 49.4648 1955.14C15.9159 1924.49 36.6556 1861.39 6.19476 1827.67C-27.2646 1790.63 -98.4448 1802.82 -125.832 1761.09C-151.471 1722.02 -155.598 1660.64 -128.338 1622.69C-97.7401 1580.09 -25.0848 1597.28 15.6027 1564.18C44.9417 1540.31 32.1206 1480.35 66.3645 1464.3C100.74 1448.18 140.477 1502.05 176.104 1488.93Z" fill="#F89D13"/>
</g>
<g filter="url(#filter16_f_2_54)">
<path fill-rule="evenodd" clip-rule="evenodd" d="M685.311 1895.09C768.085 1856.96 755.336 1702.36 842.437 1675.55C895.395 1659.25 885.619 1775.49 903.276 1828.01C916.293 1866.72 939.232 1904.88 933.114 1945.27C927.2 1984.31 878.975 2005.53 870.538 2044.1C861.986 2083.21 895.964 2122.99 885.78 2161.7C874.857 2203.22 854.044 2255.5 812.292 2265.51C766.769 2276.42 731.383 2218.06 685.311 2209.76C649.572 2203.32 608.903 2243.43 578.603 2223.41C546.585 2202.26 562.294 2148.55 542.698 2115.56C526.475 2088.24 495.539 2074.33 475.443 2049.73C445.759 2013.38 378.384 1979.32 395.847 1935.76C415.078 1887.79 499.464 1917.58 540.839 1886.62C568.591 1865.85 550.634 1792 585.238 1794.02C633.167 1796.84 641.704 1915.17 685.311 1895.09Z" fill="#FBB901"/>
</g>
<g filter="url(#filter17_f_2_54)">
<path fill-rule="evenodd" clip-rule="evenodd" d="M355.311 2013.09C438.085 1974.96 425.336 1820.36 512.437 1793.55C565.395 1777.25 555.619 1893.49 573.276 1946.01C586.293 1984.72 609.232 2022.88 603.114 2063.27C597.2 2102.31 548.975 2123.53 540.538 2162.1C531.986 2201.21 565.964 2240.99 555.78 2279.7C544.857 2321.22 524.044 2373.5 482.292 2383.51C436.769 2394.42 401.383 2336.06 355.311 2327.76C319.572 2321.32 278.903 2361.43 248.603 2341.41C216.585 2320.26 232.294 2266.55 212.698 2233.56C196.475 2206.24 165.539 2192.33 145.443 2167.73C115.759 2131.38 48.3845 2097.32 65.8469 2053.76C85.0783 2005.79 169.464 2035.58 210.839 2004.62C238.591 1983.85 220.634 1910 255.238 1912.02C303.167 1914.84 311.704 2033.17 355.311 2013.09Z" fill="#FBB901"/>
</g>
<g filter="url(#filter18_f_2_54)">
<path fill-rule="evenodd" clip-rule="evenodd" d="M191.581 1128.62C262.974 1104.15 245.908 938.269 320.951 946.281C386.569 953.286 240.028 1092.48 287.025 1138.81C342.531 1193.52 520.033 1062.52 517.911 1140.44C515.592 1225.6 333.214 1166.3 284.375 1236.1C256.245 1276.3 359.397 1306.9 367.589 1355.28C376.062 1405.31 375.778 1480.55 329.167 1500.62C281.366 1521.2 243.441 1435.43 191.581 1431.05C146.044 1427.22 91.8386 1515.12 64.7268 1478.34C27.6137 1427.98 106.791 1355.52 91.2574 1294.92C83.5791 1264.97 25.4898 1282.3 7.94758 1256.83C-8.14079 1233.48 -15.1651 1190.33 7.14574 1172.82C39.0715 1147.77 105.87 1198.06 126.996 1163.41C152.266 1121.97 56.1299 1045.41 98.8644 1022.39C140.766 999.814 146.556 1144.05 191.581 1128.62Z" fill="#FBB901"/>
</g>
<g filter="url(#filter19_f_2_54)">
<path fill-rule="evenodd" clip-rule="evenodd" d="M218.581 1586.62C289.974 1562.15 272.908 1396.27 347.951 1404.28C413.569 1411.29 267.028 1550.48 314.025 1596.81C369.531 1651.52 547.033 1520.52 544.911 1598.44C542.592 1683.6 360.214 1624.3 311.375 1694.1C283.245 1734.3 386.397 1764.9 394.589 1813.28C403.062 1863.31 402.778 1938.55 356.167 1958.62C308.366 1979.2 270.441 1893.43 218.581 1889.05C173.044 1885.22 118.839 1973.12 91.7268 1936.34C54.6137 1885.98 133.791 1813.52 118.257 1752.92C110.579 1722.97 52.4898 1740.3 34.9476 1714.83C18.8592 1691.48 11.8349 1648.33 34.1457 1630.82C66.0715 1605.77 132.87 1656.06 153.996 1621.41C179.266 1579.97 83.1299 1503.41 125.864 1480.39C167.766 1457.81 173.556 1602.05 218.581 1586.62Z" fill="#FBB901"/>
</g>
<g filter="url(#filter20_f_2_54)">
<path fill-rule="evenodd" clip-rule="evenodd" d="M1614.08 1154.26C1654.56 1177.03 1661.24 1236.4 1700.35 1261.44C1732.94 1282.32 1777.34 1267.21 1813.2 1281.78C1863.49 1302.21 1959.66 1309.84 1951.66 1363.53C1941.51 1431.62 1829.66 1427.99 1783.77 1479.31C1764.13 1501.27 1797.7 1553.4 1770.9 1565.63C1735.63 1581.74 1681.85 1503.83 1659.96 1535.84C1609.82 1609.15 1681.33 1736.9 1614.08 1794.93C1571.6 1831.58 1554.24 1694.09 1502.97 1671.31C1449.21 1647.43 1374.1 1705.58 1328.73 1668.14C1287.32 1633.96 1298.24 1563.22 1308.05 1510.43C1316.87 1462.96 1371.83 1434.77 1380.91 1387.35C1390.47 1337.39 1344.66 1286.54 1360.16 1238.08C1375.67 1189.57 1415.36 1144.32 1463.73 1128.36C1512.63 1112.21 1569.19 1129.01 1614.08 1154.26Z" fill="#FB1001"/>
</g>
<g filter="url(#filter21_f_2_54)">
<path fill-rule="evenodd" clip-rule="evenodd" d="M1287.36 1229.14C1317.07 1243.95 1341.64 1188.45 1374.46 1183.49C1415.47 1177.3 1460.67 1176.71 1496.53 1197.56C1533.68 1219.15 1573.09 1256.11 1573.33 1299.09C1573.58 1345.06 1505.82 1367.11 1497.72 1412.37C1489.01 1461.03 1559.73 1518.38 1527.4 1555.78C1494.28 1594.08 1424.89 1569.21 1377.47 1551.46C1338.19 1536.76 1326.3 1450.37 1287.36 1465.94C1218.5 1493.49 1224.92 1618.2 1154.26 1640.74C1111.43 1654.41 1098.55 1572 1075.04 1533.68C1053.68 1498.86 1041.76 1460.65 1021.88 1424.95C994.811 1376.34 920.572 1337.62 936.118 1284.19C952.169 1229.03 1046.13 1245.11 1086.2 1203.93C1120.81 1168.36 1096 1063.09 1145.25 1069.26C1216.9 1078.24 1222.74 1196.93 1287.36 1229.14Z" fill="#FFE9A6"/>
</g>
<g filter="url(#filter22_f_2_54)">
<path fill-rule="evenodd" clip-rule="evenodd" d="M653.362 1239.14C683.072 1253.95 707.639 1198.45 740.462 1193.49C781.475 1187.3 826.668 1186.71 862.527 1207.56C899.681 1229.15 939.089 1266.11 939.327 1309.09C939.582 1355.06 871.816 1377.11 863.718 1422.37C855.01 1471.03 925.728 1528.38 893.397 1565.78C860.283 1604.08 790.887 1579.21 743.467 1561.46C704.193 1546.76 692.298 1460.37 653.362 1475.94C584.502 1503.49 590.919 1628.2 520.262 1650.74C477.43 1664.41 464.552 1582 441.042 1543.68C419.678 1508.86 407.756 1470.65 387.881 1434.95C360.811 1386.34 286.572 1347.62 302.118 1294.19C318.169 1239.03 412.131 1255.11 452.195 1213.93C486.813 1178.36 461.996 1073.09 511.25 1079.26C582.898 1088.24 588.735 1206.93 653.362 1239.14Z" fill="#FFE9A6"/>
</g>
<g filter="url(#filter23_f_2_54)">
<path fill-rule="evenodd" clip-rule="evenodd" d="M773.59 1668.31C817.422 1675.11 845.388 1602.49 889.561 1606.52C928.956 1610.12 961.527 1649.51 975.036 1686.69C988.702 1724.3 968.508 1765.06 961.48 1804.45C956.519 1832.26 932.446 1857.91 939.617 1885.23C955.397 1945.37 1040.83 1987.95 1025.44 2048.18C1013.56 2094.66 936.287 2088.26 888.386 2085.71C846.052 2083.46 814.782 2044.81 773.59 2034.79C743.829 2027.55 705.109 2056.79 682.862 2035.73C657.355 2011.6 687.002 1961.28 666.091 1933.06C646.319 1906.39 597.588 1918.01 576.561 1892.31C555.783 1866.91 549.051 1829.72 555.169 1797.48C561.305 1765.15 598.606 1747.7 609.87 1716.78C627.424 1668.58 589.713 1582.2 638.892 1567.64C693.322 1551.52 717.495 1659.6 773.59 1668.31Z" fill="#FDF10B"/>
</g>
<g filter="url(#filter24_f_2_54)">
<path fill-rule="evenodd" clip-rule="evenodd" d="M1133.59 1894.31C1177.42 1901.11 1205.39 1828.49 1249.56 1832.52C1288.96 1836.12 1321.53 1875.51 1335.04 1912.69C1348.7 1950.3 1328.51 1991.06 1321.48 2030.45C1316.52 2058.26 1292.45 2083.91 1299.62 2111.23C1315.4 2171.37 1400.83 2213.95 1385.44 2274.18C1373.56 2320.66 1296.29 2314.26 1248.39 2311.71C1206.05 2309.46 1174.78 2270.81 1133.59 2260.79C1103.83 2253.55 1065.11 2282.79 1042.86 2261.73C1017.36 2237.6 1047 2187.28 1026.09 2159.06C1006.32 2132.39 957.588 2144.01 936.561 2118.31C915.783 2092.91 909.051 2055.72 915.169 2023.48C921.305 1991.15 958.606 1973.7 969.87 1942.78C987.424 1894.58 949.713 1808.2 998.892 1793.64C1053.32 1777.52 1077.5 1885.6 1133.59 1894.31Z" fill="#FDF10B"/>
</g>
<g filter="url(#filter25_f_2_54)">
<path fill-rule="evenodd" clip-rule="evenodd" d="M1163.35 1446.66C1198.2 1456.85 1246.29 1431.58 1270.23 1458.89C1298.35 1490.97 1253.7 1554.63 1284.17 1584.48C1321.21 1620.76 1453.14 1571.02 1433.79 1619.11C1407.25 1685.07 1244.05 1627.11 1238.5 1697.99C1231.83 1782.97 1401.64 1795.75 1413.32 1880.18C1420.18 1929.81 1313.36 1878.21 1265.45 1892.85C1226.59 1904.73 1193.12 1984.24 1163.35 1956.59C1114.21 1910.97 1153.78 1822.07 1124.34 1761.83C1115.74 1744.22 1085.97 1759.28 1066.4 1758.15C1000.87 1754.37 919.713 1792.62 872.247 1747.28C839.827 1716.31 926.503 1672.22 929.621 1627.49C933.55 1571.13 871.875 1517.22 891.965 1464.42C910.126 1416.69 970.481 1389.5 1021.44 1386.17C1073.4 1382.77 1113.36 1432.05 1163.35 1446.66Z" fill="#EB0F0F"/>
</g>
<g filter="url(#filter26_f_2_54)">
<path fill-rule="evenodd" clip-rule="evenodd" d="M1448.35 1742.66C1483.2 1752.85 1531.29 1727.58 1555.23 1754.89C1583.35 1786.97 1538.7 1850.63 1569.17 1880.48C1606.21 1916.76 1738.14 1867.02 1718.79 1915.11C1692.25 1981.07 1529.05 1923.11 1523.5 1993.99C1516.83 2078.97 1686.64 2091.75 1698.32 2176.18C1705.18 2225.81 1598.36 2174.21 1550.45 2188.85C1511.59 2200.73 1478.12 2280.24 1448.35 2252.59C1399.21 2206.97 1438.78 2118.07 1409.34 2057.83C1400.74 2040.22 1370.97 2055.28 1351.4 2054.15C1285.87 2050.37 1204.71 2088.62 1157.25 2043.28C1124.83 2012.31 1211.5 1968.22 1214.62 1923.49C1218.55 1867.13 1156.87 1813.22 1176.97 1760.42C1195.13 1712.69 1255.48 1685.5 1306.44 1682.17C1358.4 1678.77 1398.36 1728.05 1448.35 1742.66Z" fill="#EB0F0F"/>
</g>
</g>
<g clip-path="url(#clip3_2_54)" filter="url(#filter27_d_2_54)">
<rect width="1728" height="1117" transform="translate(20 2294)" fill="url(#paint0_linear_2_54)" style="mix-blend-mode:multiply"/>
<g filter="url(#filter28_f_2_54)">
<path fill-rule="evenodd" clip-rule="evenodd" d="M760.104 2284.93C823.27 2261.67 849.9 2159.28 917.155 2162.06C970.404 2164.25 978.851 2247.13 1002.45 2294.91C1022.65 2335.84 1030.68 2379.92 1045.96 2422.93C1063.12 2471.24 1116.23 2517.29 1098.55 2565.42C1079.94 2616.09 1003.07 2613.92 962.667 2649.71C930.477 2678.23 923.663 2729.38 887.402 2752.51C850.401 2776.11 803.988 2779.13 760.104 2778.9C716.341 2778.66 665.775 2780.66 633.465 2751.14C599.916 2720.49 620.656 2657.39 590.195 2623.67C556.735 2586.63 485.555 2598.82 458.168 2557.09C432.529 2518.02 428.402 2456.64 455.662 2418.69C486.26 2376.09 558.915 2393.28 599.603 2360.18C628.942 2336.31 616.121 2276.35 650.365 2260.3C684.74 2244.18 724.477 2298.05 760.104 2284.93Z" fill="#F89D13"/>
</g>
<g filter="url(#filter29_f_2_54)">
<path fill-rule="evenodd" clip-rule="evenodd" d="M176.104 2625.93C239.27 2602.67 265.9 2500.28 333.155 2503.06C386.404 2505.25 394.851 2588.13 418.445 2635.91C438.651 2676.84 446.676 2720.92 461.956 2763.93C479.121 2812.24 532.227 2858.29 514.551 2906.42C495.942 2957.09 419.068 2954.92 378.667 2990.71C346.477 3019.23 339.663 3070.38 303.402 3093.51C266.401 3117.11 219.988 3120.13 176.104 3119.9C132.341 3119.66 81.7751 3121.66 49.4648 3092.14C15.9159 3061.49 36.6556 2998.39 6.19476 2964.67C-27.2646 2927.63 -98.4448 2939.82 -125.832 2898.09C-151.471 2859.02 -155.598 2797.64 -128.338 2759.69C-97.7401 2717.09 -25.0848 2734.28 15.6027 2701.18C44.9417 2677.31 32.1206 2617.35 66.3645 2601.3C100.74 2585.18 140.477 2639.05 176.104 2625.93Z" fill="#F89D13"/>
</g>
<g filter="url(#filter30_f_2_54)">
<path fill-rule="evenodd" clip-rule="evenodd" d="M685.311 3032.09C768.085 2993.96 755.336 2839.36 842.437 2812.55C895.395 2796.25 885.619 2912.49 903.276 2965.01C916.293 3003.72 939.232 3041.88 933.114 3082.27C927.2 3121.31 878.975 3142.53 870.538 3181.1C861.986 3220.21 895.964 3259.99 885.78 3298.7C874.857 3340.22 854.044 3392.5 812.292 3402.51C766.769 3413.42 731.383 3355.06 685.311 3346.76C649.572 3340.32 608.903 3380.43 578.603 3360.41C546.585 3339.26 562.294 3285.55 542.698 3252.56C526.475 3225.24 495.539 3211.33 475.443 3186.73C445.759 3150.38 378.384 3116.32 395.847 3072.76C415.078 3024.79 499.464 3054.58 540.839 3023.62C568.591 3002.85 550.634 2929 585.238 2931.02C633.167 2933.84 641.704 3052.17 685.311 3032.09Z" fill="#FBB901"/>
</g>
<g filter="url(#filter31_f_2_54)">
<path fill-rule="evenodd" clip-rule="evenodd" d="M1171.31 2468.09C1254.08 2429.96 1241.34 2275.36 1328.44 2248.55C1381.4 2232.25 1371.62 2348.49 1389.28 2401.01C1402.29 2439.72 1425.23 2477.88 1419.11 2518.27C1413.2 2557.31 1364.98 2578.53 1356.54 2617.1C1347.99 2656.21 1381.96 2695.99 1371.78 2734.7C1360.86 2776.22 1340.04 2828.5 1298.29 2838.51C1252.77 2849.42 1217.38 2791.06 1171.31 2782.76C1135.57 2776.32 1094.9 2816.43 1064.6 2796.41C1032.59 2775.26 1048.29 2721.55 1028.7 2688.56C1012.48 2661.24 981.539 2647.33 961.443 2622.73C931.759 2586.38 864.384 2552.32 881.847 2508.76C901.078 2460.79 985.464 2490.58 1026.84 2459.62C1054.59 2438.85 1036.63 2365 1071.24 2367.02C1119.17 2369.84 1127.7 2488.17 1171.31 2468.09Z" fill="#FBB901"/>
</g>
<g filter="url(#filter32_f_2_54)">
<path fill-rule="evenodd" clip-rule="evenodd" d="M1077.58 2961.62C1148.97 2937.15 1131.91 2771.27 1206.95 2779.28C1272.57 2786.29 1126.03 2925.48 1173.02 2971.81C1228.53 3026.52 1406.03 2895.52 1403.91 2973.44C1401.59 3058.6 1219.21 2999.3 1170.37 3069.1C1142.24 3109.3 1245.4 3139.9 1253.59 3188.28C1262.06 3238.31 1261.78 3313.55 1215.17 3333.62C1167.37 3354.2 1129.44 3268.43 1077.58 3264.05C1032.04 3260.22 977.839 3348.12 950.727 3311.34C913.614 3260.98 992.791 3188.52 977.257 3127.92C969.579 3097.97 911.49 3115.3 893.948 3089.83C877.859 3066.48 870.835 3023.33 893.146 3005.82C925.071 2980.77 991.87 3031.06 1013 2996.41C1038.27 2954.97 942.13 2878.41 984.864 2855.39C1026.77 2832.81 1032.56 2977.05 1077.58 2961.62Z" fill="#FBB901"/>
</g>
<g filter="url(#filter33_f_2_54)">
<path fill-rule="evenodd" clip-rule="evenodd" d="M282.083 2767.26C322.564 2790.03 329.236 2849.4 368.347 2874.44C400.945 2895.32 445.339 2880.21 481.203 2894.78C531.489 2915.21 627.656 2922.84 619.658 2976.53C609.512 3044.62 497.665 3040.99 451.772 3092.31C432.131 3114.27 465.703 3166.4 438.901 3178.63C403.628 3194.74 349.851 3116.83 327.96 3148.84C277.82 3222.15 349.327 3349.9 282.083 3407.93C239.603 3444.58 222.241 3307.09 170.966 3284.31C117.208 3260.43 42.0981 3318.58 -3.26953 3281.14C-44.6791 3246.96 -33.7638 3176.22 -23.9542 3123.43C-15.1338 3075.96 39.8329 3047.77 48.9063 3000.35C58.4676 2950.39 12.6634 2899.54 28.1586 2851.08C43.6713 2802.57 83.3605 2757.32 131.726 2741.36C180.633 2725.21 237.193 2742.01 282.083 2767.26Z" fill="#FB6A01"/>
</g>
<g filter="url(#filter34_f_2_54)">
<path fill-rule="evenodd" clip-rule="evenodd" d="M1568.08 2532.26C1608.56 2555.03 1615.24 2614.4 1654.35 2639.44C1686.94 2660.32 1731.34 2645.21 1767.2 2659.78C1817.49 2680.21 1913.66 2687.84 1905.66 2741.53C1895.51 2809.62 1783.66 2805.99 1737.77 2857.31C1718.13 2879.27 1751.7 2931.4 1724.9 2943.63C1689.63 2959.74 1635.85 2881.83 1613.96 2913.84C1563.82 2987.15 1635.33 3114.9 1568.08 3172.93C1525.6 3209.58 1508.24 3072.09 1456.97 3049.31C1403.21 3025.43 1328.1 3083.58 1282.73 3046.14C1241.32 3011.96 1252.24 2941.22 1262.05 2888.43C1270.87 2840.96 1325.83 2812.77 1334.91 2765.35C1344.47 2715.39 1298.66 2664.54 1314.16 2616.08C1329.67 2567.57 1369.36 2522.32 1417.73 2506.36C1466.63 2490.21 1523.19 2507.01 1568.08 2532.26Z" fill="#FB6A01"/>
</g>
<g filter="url(#filter35_f_2_54)">
<path fill-rule="evenodd" clip-rule="evenodd" d="M1514.36 3033.14C1544.07 3047.95 1568.64 2992.45 1601.46 2987.49C1642.47 2981.3 1687.67 2980.71 1723.53 3001.56C1760.68 3023.15 1800.09 3060.11 1800.33 3103.09C1800.58 3149.06 1732.82 3171.11 1724.72 3216.37C1716.01 3265.03 1786.73 3322.38 1754.4 3359.78C1721.28 3398.08 1651.89 3373.21 1604.47 3355.46C1565.19 3340.76 1553.3 3254.37 1514.36 3269.94C1445.5 3297.49 1451.92 3422.2 1381.26 3444.74C1338.43 3458.41 1325.55 3376 1302.04 3337.68C1280.68 3302.86 1268.76 3264.65 1248.88 3228.95C1221.81 3180.34 1147.57 3141.62 1163.12 3088.19C1179.17 3033.03 1273.13 3049.11 1313.2 3007.93C1347.81 2972.36 1323 2867.09 1372.25 2873.26C1443.9 2882.24 1449.74 3000.93 1514.36 3033.14Z" fill="#FFE9A6"/>
</g>
<g filter="url(#filter36_f_2_54)">
<path fill-rule="evenodd" clip-rule="evenodd" d="M219.362 2525.14C249.072 2539.95 273.639 2484.45 306.462 2479.49C347.475 2473.3 392.668 2472.71 428.527 2493.56C465.681 2515.15 505.089 2552.11 505.327 2595.09C505.582 2641.06 437.816 2663.11 429.718 2708.37C421.01 2757.03 491.728 2814.38 459.397 2851.78C426.283 2890.08 356.887 2865.21 309.467 2847.46C270.193 2832.76 258.298 2746.37 219.362 2761.94C150.502 2789.49 156.919 2914.2 86.2621 2936.74C43.4295 2950.41 30.5515 2868 7.04166 2829.68C-14.3216 2794.86 -26.244 2756.65 -46.1194 2720.95C-73.1888 2672.34 -147.428 2633.62 -131.882 2580.19C-115.831 2525.03 -21.869 2541.11 18.195 2499.93C52.8125 2464.36 27.9958 2359.09 77.2503 2365.26C148.898 2374.24 154.735 2492.93 219.362 2525.14Z" fill="#FFE9A6"/>
</g>
<g filter="url(#filter37_f_2_54)">
<path fill-rule="evenodd" clip-rule="evenodd" d="M1444.59 2367.31C1488.42 2374.11 1516.39 2301.49 1560.56 2305.52C1599.96 2309.12 1632.53 2348.51 1646.04 2385.69C1659.7 2423.3 1639.51 2464.06 1632.48 2503.45C1627.52 2531.26 1603.45 2556.91 1610.62 2584.23C1626.4 2644.37 1711.83 2686.95 1696.44 2747.18C1684.56 2793.66 1607.29 2787.26 1559.39 2784.71C1517.05 2782.46 1485.78 2743.81 1444.59 2733.79C1414.83 2726.55 1376.11 2755.79 1353.86 2734.73C1328.36 2710.6 1358 2660.28 1337.09 2632.06C1317.32 2605.39 1268.59 2617.01 1247.56 2591.31C1226.78 2565.91 1220.05 2528.72 1226.17 2496.48C1232.3 2464.15 1269.61 2446.7 1280.87 2415.78C1298.42 2367.58 1260.71 2281.2 1309.89 2266.64C1364.32 2250.52 1388.5 2358.6 1444.59 2367.31Z" fill="#FDF10B"/>
</g>
<g filter="url(#filter38_f_2_54)">
<path fill-rule="evenodd" clip-rule="evenodd" d="M361.346 2357.66C396.204 2367.85 444.291 2342.58 468.231 2369.89C496.351 2401.97 451.702 2465.63 482.174 2495.48C519.206 2531.76 651.142 2482.02 631.789 2530.11C605.246 2596.07 442.054 2538.11 436.496 2608.99C429.833 2693.97 599.639 2706.75 611.316 2791.18C618.18 2840.81 511.356 2789.21 463.446 2803.85C424.59 2815.73 391.12 2895.24 361.346 2867.59C312.212 2821.97 351.777 2733.07 322.345 2672.83C313.742 2655.22 283.968 2670.28 264.401 2669.15C198.868 2665.37 117.713 2703.62 70.2474 2658.28C37.827 2627.31 124.503 2583.22 127.621 2538.49C131.55 2482.13 69.8747 2428.22 89.9653 2375.42C108.126 2327.69 168.481 2300.5 219.44 2297.17C271.402 2293.77 311.365 2343.05 361.346 2357.66Z" fill="#EB6B0F"/>
</g>
<g filter="url(#filter39_f_2_54)">
<path fill-rule="evenodd" clip-rule="evenodd" d="M877.346 2563.66C912.204 2573.85 960.291 2548.58 984.231 2575.89C1012.35 2607.97 967.702 2671.63 998.174 2701.48C1035.21 2737.76 1167.14 2688.02 1147.79 2736.11C1121.25 2802.07 958.054 2744.11 952.496 2814.99C945.833 2899.97 1115.64 2912.75 1127.32 2997.18C1134.18 3046.81 1027.36 2995.21 979.446 3009.85C940.59 3021.73 907.12 3101.24 877.346 3073.59C828.212 3027.97 867.777 2939.07 838.345 2878.83C829.742 2861.22 799.968 2876.28 780.401 2875.15C714.868 2871.37 633.713 2909.62 586.247 2864.28C553.827 2833.31 640.503 2789.22 643.621 2744.49C647.55 2688.13 585.875 2634.22 605.965 2581.42C624.126 2533.69 684.481 2506.5 735.44 2503.17C787.402 2499.77 827.365 2549.05 877.346 2563.66Z" fill="#EB6B0F"/>
</g>
</g>
</g>
<rect x="0.5" y="0.5" width="1767" height="3430" rx="4.5" stroke="#9747FF" stroke-dasharray="10 5"/>
<defs>
<filter id="filter0_d_2_54" x="-80" y="-154" width="1928" height="1317" filterUnits="userSpaceOnUse" color-interpolation-filters="sRGB">
<feFlood flood-opacity="0" result="BackgroundImageFix"/>
<feColorMatrix in="SourceAlpha" type="matrix" values="0 0 0 0 0 0 0 0 0 0 0 0 0 0 0 0 0 0 127 0" result="hardAlpha"/>
<feOffset dy="4"/>
<feGaussianBlur stdDeviation="50"/>
<feComposite in2="hardAlpha" operator="out"/>
<feColorMatrix type="matrix" values="0 0 0 0 0 0 0 0 0 0 0 0 0 0 0 0 0 0 0.25 0"/>
<feBlend mode="normal" in2="BackgroundImageFix" result="effect1_dropShadow_2_54"/>
<feBlend mode="normal" in="SourceGraphic" in2="effect1_dropShadow_2_54" result="shape"/>
</filter>
<filter id="filter1_f_2_54" x="37" y="-590" width="1465.11" height="1416.91" filterUnits="userSpaceOnUse" color-interpolation-filters="sRGB">
<feFlood flood-opacity="0" result="BackgroundImageFix"/>
<feBlend mode="normal" in="SourceGraphic" in2="BackgroundImageFix" result="shape"/>
<feGaussianBlur stdDeviation="200" result="effect1_foregroundBlur_2_54"/>
</filter>
<filter id="filter2_f_2_54" x="-547" y="-249" width="1465.11" height="1416.91" filterUnits="userSpaceOnUse" color-interpolation-filters="sRGB">
<feFlood flood-opacity="0" result="BackgroundImageFix"/>
<feBlend mode="normal" in="SourceGraphic" in2="BackgroundImageFix" result="shape"/>
<feGaussianBlur stdDeviation="200" result="effect1_foregroundBlur_2_54"/>
</filter>
<filter id="filter3_f_2_54" x="-7" y="59" width="1341.13" height="1392.86" filterUnits="userSpaceOnUse" color-interpolation-filters="sRGB">
<feFlood flood-opacity="0" result="BackgroundImageFix"/>
<feBlend mode="normal" in="SourceGraphic" in2="BackgroundImageFix" result="shape"/>
<feGaussianBlur stdDeviation="200" result="effect1_foregroundBlur_2_54"/>
</filter>
<filter id="filter4_f_2_54" x="479" y="-505" width="1341.13" height="1392.86" filterUnits="userSpaceOnUse" color-interpolation-filters="sRGB">
<feFlood flood-opacity="0" result="BackgroundImageFix"/>
<feBlend mode="normal" in="SourceGraphic" in2="BackgroundImageFix" result="shape"/>
<feGaussianBlur stdDeviation="200" result="effect1_foregroundBlur_2_54"/>
</filter>
<filter id="filter5_f_2_54" x="479" y="27" width="1324.93" height="1357.8" filterUnits="userSpaceOnUse" color-interpolation-filters="sRGB">
<feFlood flood-opacity="0" result="BackgroundImageFix"/>
<feBlend mode="normal" in="SourceGraphic" in2="BackgroundImageFix" result="shape"/>
<feGaussianBlur stdDeviation="200" result="effect1_foregroundBlur_2_54"/>
</filter>
<filter id="filter6_f_2_54" x="-433" y="-17" width="1453.13" height="1479.1" filterUnits="userSpaceOnUse" color-interpolation-filters="sRGB">
<feFlood flood-opacity="0" result="BackgroundImageFix"/>
<feBlend mode="normal" in="SourceGraphic" in2="BackgroundImageFix" result="shape"/>
<feGaussianBlur stdDeviation="200" result="effect1_foregroundBlur_2_54"/>
</filter>
<filter id="filter7_f_2_54" x="853" y="-252" width="1453.13" height="1479.1" filterUnits="userSpaceOnUse" color-interpolation-filters="sRGB">
<feFlood flood-opacity="0" result="BackgroundImageFix"/>
<feBlend mode="normal" in="SourceGraphic" in2="BackgroundImageFix" result="shape"/>
<feGaussianBlur stdDeviation="200" result="effect1_foregroundBlur_2_54"/>
</filter>
<filter id="filter8_f_2_54" x="761" y="121" width="1439.33" height="1373.26" filterUnits="userSpaceOnUse" color-interpolation-filters="sRGB">
<feFlood flood-opacity="0" result="BackgroundImageFix"/>
<feBlend mode="normal" in="SourceGraphic" in2="BackgroundImageFix" result="shape"/>
<feGaussianBlur stdDeviation="200" result="effect1_foregroundBlur_2_54"/>
</filter>
<filter id="filter9_f_2_54" x="-534" y="-387" width="1439.33" height="1373.26" filterUnits="userSpaceOnUse" color-interpolation-filters="sRGB">
<feFlood flood-opacity="0" result="BackgroundImageFix"/>
<feBlend mode="normal" in="SourceGraphic" in2="BackgroundImageFix" result="shape"/>
<feGaussianBlur stdDeviation="200" result="effect1_foregroundBlur_2_54"/>
</filter>
<filter id="filter10_f_2_54" x="824" y="-487" width="1274.29" height="1321.52" filterUnits="userSpaceOnUse" color-interpolation-filters="sRGB">
<feFlood flood-opacity="0" result="BackgroundImageFix"/>
<feBlend mode="normal" in="SourceGraphic" in2="BackgroundImageFix" result="shape"/>
<feGaussianBlur stdDeviation="200" result="effect1_foregroundBlur_2_54"/>
</filter>
<filter id="filter11_f_2_54" x="-337" y="-455" width="1370.72" height="1376.39" filterUnits="userSpaceOnUse" color-interpolation-filters="sRGB">
<feFlood flood-opacity="0" result="BackgroundImageFix"/>
<feBlend mode="normal" in="SourceGraphic" in2="BackgroundImageFix" result="shape"/>
<feGaussianBlur stdDeviation="200" result="effect1_foregroundBlur_2_54"/>
</filter>
<filter id="filter12_f_2_54" x="179" y="-249" width="1370.72" height="1376.39" filterUnits="userSpaceOnUse" color-interpolation-filters="sRGB">
<feFlood flood-opacity="0" result="BackgroundImageFix"/>
<feBlend mode="normal" in="SourceGraphic" in2="BackgroundImageFix" result="shape"/>
<feGaussianBlur stdDeviation="200" result="effect1_foregroundBlur_2_54"/>
</filter>
<filter id="filter13_d_2_54" x="-80" y="1061" width="1928" height="1317" filterUnits="userSpaceOnUse" color-interpolation-filters="sRGB">
<feFlood flood-opacity="0" result="BackgroundImageFix"/>
<feColorMatrix in="SourceAlpha" type="matrix" values="0 0 0 0 0 0 0 0 0 0 0 0 0 0 0 0 0 0 127 0" result="hardAlpha"/>
<feOffset dy="4"/>
<feGaussianBlur stdDeviation="50"/>
<feComposite in2="hardAlpha" operator="out"/>
<feColorMatrix type="matrix" values="0 0 0 0 0 0 0 0 0 0 0 0 0 0 0 0 0 0 0.25 0"/>
<feBlend mode="normal" in2="BackgroundImageFix" result="effect1_dropShadow_2_54"/>
<feBlend mode="normal" in="SourceGraphic" in2="effect1_dropShadow_2_54" result="shape"/>
</filter>
<filter id="filter14_f_2_54" x="37" y="625" width="1465.11" height="1416.91" filterUnits="userSpaceOnUse" color-interpolation-filters="sRGB">
<feFlood flood-opacity="0" result="BackgroundImageFix"/>
<feBlend mode="normal" in="SourceGraphic" in2="BackgroundImageFix" result="shape"/>
<feGaussianBlur stdDeviation="200" result="effect1_foregroundBlur_2_54"/>
</filter>
<filter id="filter15_f_2_54" x="-547" y="966" width="1465.11" height="1416.91" filterUnits="userSpaceOnUse" color-interpolation-filters="sRGB">
<feFlood flood-opacity="0" result="BackgroundImageFix"/>
<feBlend mode="normal" in="SourceGraphic" in2="BackgroundImageFix" result="shape"/>
<feGaussianBlur stdDeviation="200" result="effect1_foregroundBlur_2_54"/>
</filter>
<filter id="filter16_f_2_54" x="-7" y="1274" width="1341.13" height="1392.86" filterUnits="userSpaceOnUse" color-interpolation-filters="sRGB">
<feFlood flood-opacity="0" result="BackgroundImageFix"/>
<feBlend mode="normal" in="SourceGraphic" in2="BackgroundImageFix" result="shape"/>
<feGaussianBlur stdDeviation="200" result="effect1_foregroundBlur_2_54"/>
</filter>
<filter id="filter17_f_2_54" x="-337" y="1392" width="1341.13" height="1392.86" filterUnits="userSpaceOnUse" color-interpolation-filters="sRGB">
<feFlood flood-opacity="0" result="BackgroundImageFix"/>
<feBlend mode="normal" in="SourceGraphic" in2="BackgroundImageFix" result="shape"/>
<feGaussianBlur stdDeviation="200" result="effect1_foregroundBlur_2_54"/>
</filter>
<filter id="filter18_f_2_54" x="-407" y="546" width="1324.93" height="1357.8" filterUnits="userSpaceOnUse" color-interpolation-filters="sRGB">
<feFlood flood-opacity="0" result="BackgroundImageFix"/>
<feBlend mode="normal" in="SourceGraphic" in2="BackgroundImageFix" result="shape"/>
<feGaussianBlur stdDeviation="200" result="effect1_foregroundBlur_2_54"/>
</filter>
<filter id="filter19_f_2_54" x="-380" y="1004" width="1324.93" height="1357.8" filterUnits="userSpaceOnUse" color-interpolation-filters="sRGB">
<feFlood flood-opacity="0" result="BackgroundImageFix"/>
<feBlend mode="normal" in="SourceGraphic" in2="BackgroundImageFix" result="shape"/>
<feGaussianBlur stdDeviation="200" result="effect1_foregroundBlur_2_54"/>
</filter>
<filter id="filter20_f_2_54" x="899" y="722" width="1453.13" height="1479.1" filterUnits="userSpaceOnUse" color-interpolation-filters="sRGB">
<feFlood flood-opacity="0" result="BackgroundImageFix"/>
<feBlend mode="normal" in="SourceGraphic" in2="BackgroundImageFix" result="shape"/>
<feGaussianBlur stdDeviation="200" result="effect1_foregroundBlur_2_54"/>
</filter>
<filter id="filter21_f_2_54" x="534" y="669" width="1439.33" height="1373.26" filterUnits="userSpaceOnUse" color-interpolation-filters="sRGB">
<feFlood flood-opacity="0" result="BackgroundImageFix"/>
<feBlend mode="normal" in="SourceGraphic" in2="BackgroundImageFix" result="shape"/>
<feGaussianBlur stdDeviation="200" result="effect1_foregroundBlur_2_54"/>
</filter>
<filter id="filter22_f_2_54" x="-100" y="679" width="1439.33" height="1373.26" filterUnits="userSpaceOnUse" color-interpolation-filters="sRGB">
<feFlood flood-opacity="0" result="BackgroundImageFix"/>
<feBlend mode="normal" in="SourceGraphic" in2="BackgroundImageFix" result="shape"/>
<feGaussianBlur stdDeviation="200" result="effect1_foregroundBlur_2_54"/>
</filter>
<filter id="filter23_f_2_54" x="153" y="1166" width="1274.29" height="1321.52" filterUnits="userSpaceOnUse" color-interpolation-filters="sRGB">
<feFlood flood-opacity="0" result="BackgroundImageFix"/>
<feBlend mode="normal" in="SourceGraphic" in2="BackgroundImageFix" result="shape"/>
<feGaussianBlur stdDeviation="200" result="effect1_foregroundBlur_2_54"/>
</filter>
<filter id="filter24_f_2_54" x="513" y="1392" width="1274.29" height="1321.52" filterUnits="userSpaceOnUse" color-interpolation-filters="sRGB">
<feFlood flood-opacity="0" result="BackgroundImageFix"/>
<feBlend mode="normal" in="SourceGraphic" in2="BackgroundImageFix" result="shape"/>
<feGaussianBlur stdDeviation="200" result="effect1_foregroundBlur_2_54"/>
</filter>
<filter id="filter25_f_2_54" x="465" y="986" width="1370.72" height="1376.39" filterUnits="userSpaceOnUse" color-interpolation-filters="sRGB">
<feFlood flood-opacity="0" result="BackgroundImageFix"/>
<feBlend mode="normal" in="SourceGraphic" in2="BackgroundImageFix" result="shape"/>
<feGaussianBlur stdDeviation="200" result="effect1_foregroundBlur_2_54"/>
</filter>
<filter id="filter26_f_2_54" x="750" y="1282" width="1370.72" height="1376.39" filterUnits="userSpaceOnUse" color-interpolation-filters="sRGB">
<feFlood flood-opacity="0" result="BackgroundImageFix"/>
<feBlend mode="normal" in="SourceGraphic" in2="BackgroundImageFix" result="shape"/>
<feGaussianBlur stdDeviation="200" result="effect1_foregroundBlur_2_54"/>
</filter>
<filter id="filter27_d_2_54" x="-80" y="2198" width="1928" height="1317" filterUnits="userSpaceOnUse" color-interpolation-filters="sRGB">
<feFlood flood-opacity="0" result="BackgroundImageFix"/>
<feColorMatrix in="SourceAlpha" type="matrix" values="0 0 0 0 0 0 0 0 0 0 0 0 0 0 0 0 0 0 127 0" result="hardAlpha"/>
<feOffset dy="4"/>
<feGaussianBlur stdDeviation="50"/>
<feComposite in2="hardAlpha" operator="out"/>
<feColorMatrix type="matrix" values="0 0 0 0 0 0 0 0 0 0 0 0 0 0 0 0 0 0 0.25 0"/>
<feBlend mode="normal" in2="BackgroundImageFix" result="effect1_dropShadow_2_54"/>
<feBlend mode="normal" in="SourceGraphic" in2="effect1_dropShadow_2_54" result="shape"/>
</filter>
<filter id="filter28_f_2_54" x="137" y="1862" width="1265.11" height="1216.91" filterUnits="userSpaceOnUse" color-interpolation-filters="sRGB">
<feFlood flood-opacity="0" result="BackgroundImageFix"/>
<feBlend mode="normal" in="SourceGraphic" in2="BackgroundImageFix" result="shape"/>
<feGaussianBlur stdDeviation="150" result="effect1_foregroundBlur_2_54"/>
</filter>
<filter id="filter29_f_2_54" x="-447" y="2203" width="1265.11" height="1216.91" filterUnits="userSpaceOnUse" color-interpolation-filters="sRGB">
<feFlood flood-opacity="0" result="BackgroundImageFix"/>
<feBlend mode="normal" in="SourceGraphic" in2="BackgroundImageFix" result="shape"/>
<feGaussianBlur stdDeviation="150" result="effect1_foregroundBlur_2_54"/>
</filter>
<filter id="filter30_f_2_54" x="93" y="2511" width="1141.13" height="1192.86" filterUnits="userSpaceOnUse" color-interpolation-filters="sRGB">
<feFlood flood-opacity="0" result="BackgroundImageFix"/>
<feBlend mode="normal" in="SourceGraphic" in2="BackgroundImageFix" result="shape"/>
<feGaussianBlur stdDeviation="150" result="effect1_foregroundBlur_2_54"/>
</filter>
<filter id="filter31_f_2_54" x="579" y="1947" width="1141.13" height="1192.86" filterUnits="userSpaceOnUse" color-interpolation-filters="sRGB">
<feFlood flood-opacity="0" result="BackgroundImageFix"/>
<feBlend mode="normal" in="SourceGraphic" in2="BackgroundImageFix" result="shape"/>
<feGaussianBlur stdDeviation="150" result="effect1_foregroundBlur_2_54"/>
</filter>
<filter id="filter32_f_2_54" x="579" y="2479" width="1124.93" height="1157.8" filterUnits="userSpaceOnUse" color-interpolation-filters="sRGB">
<feFlood flood-opacity="0" result="BackgroundImageFix"/>
<feBlend mode="normal" in="SourceGraphic" in2="BackgroundImageFix" result="shape"/>
<feGaussianBlur stdDeviation="150" result="effect1_foregroundBlur_2_54"/>
</filter>
<filter id="filter33_f_2_54" x="-333" y="2435" width="1253.13" height="1279.1" filterUnits="userSpaceOnUse" color-interpolation-filters="sRGB">
<feFlood flood-opacity="0" result="BackgroundImageFix"/>
<feBlend mode="normal" in="SourceGraphic" in2="BackgroundImageFix" result="shape"/>
<feGaussianBlur stdDeviation="150" result="effect1_foregroundBlur_2_54"/>
</filter>
<filter id="filter34_f_2_54" x="953" y="2200" width="1253.13" height="1279.1" filterUnits="userSpaceOnUse" color-interpolation-filters="sRGB">
<feFlood flood-opacity="0" result="BackgroundImageFix"/>
<feBlend mode="normal" in="SourceGraphic" in2="BackgroundImageFix" result="shape"/>
<feGaussianBlur stdDeviation="150" result="effect1_foregroundBlur_2_54"/>
</filter>
<filter id="filter35_f_2_54" x="861" y="2573" width="1239.33" height="1173.26" filterUnits="userSpaceOnUse" color-interpolation-filters="sRGB">
<feFlood flood-opacity="0" result="BackgroundImageFix"/>
<feBlend mode="normal" in="SourceGraphic" in2="BackgroundImageFix" result="shape"/>
<feGaussianBlur stdDeviation="150" result="effect1_foregroundBlur_2_54"/>
</filter>
<filter id="filter36_f_2_54" x="-434" y="2065" width="1239.33" height="1173.26" filterUnits="userSpaceOnUse" color-interpolation-filters="sRGB">
<feFlood flood-opacity="0" result="BackgroundImageFix"/>
<feBlend mode="normal" in="SourceGraphic" in2="BackgroundImageFix" result="shape"/>
<feGaussianBlur stdDeviation="150" result="effect1_foregroundBlur_2_54"/>
</filter>
<filter id="filter37_f_2_54" x="924" y="1965" width="1074.29" height="1121.52" filterUnits="userSpaceOnUse" color-interpolation-filters="sRGB">
<feFlood flood-opacity="0" result="BackgroundImageFix"/>
<feBlend mode="normal" in="SourceGraphic" in2="BackgroundImageFix" result="shape"/>
<feGaussianBlur stdDeviation="150" result="effect1_foregroundBlur_2_54"/>
</filter>
<filter id="filter38_f_2_54" x="-237" y="1997" width="1170.72" height="1176.39" filterUnits="userSpaceOnUse" color-interpolation-filters="sRGB">
<feFlood flood-opacity="0" result="BackgroundImageFix"/>
<feBlend mode="normal" in="SourceGraphic" in2="BackgroundImageFix" result="shape"/>
<feGaussianBlur stdDeviation="150" result="effect1_foregroundBlur_2_54"/>
</filter>
<filter id="filter39_f_2_54" x="279" y="2203" width="1170.72" height="1176.39" filterUnits="userSpaceOnUse" color-interpolation-filters="sRGB">
<feFlood flood-opacity="0" result="BackgroundImageFix"/>
<feBlend mode="normal" in="SourceGraphic" in2="BackgroundImageFix" result="shape"/>
<feGaussianBlur stdDeviation="150" result="effect1_foregroundBlur_2_54"/>
</filter>
<linearGradient id="paint0_linear_2_54" x1="725" y1="788.5" x2="1003" y2="328.5" gradientUnits="userSpaceOnUse">
<stop stop-color="#393837"/>
<stop offset="0.669792" stop-color="#181612" stop-opacity="0.580208"/>
<stop offset="1" stop-color="#251804" stop-opacity="0.580208"/>
</linearGradient>
<clipPath id="clip0_2_54">
<rect width="1768" height="3431" rx="5" fill="white"/>
</clipPath>
<clipPath id="clip1_2_54">
<rect width="1728" height="1117" fill="white" transform="translate(20 -58)"/>
</clipPath>
<clipPath id="clip2_2_54">
<rect width="1728" height="1117" fill="white" transform="translate(20 1157)"/>
</clipPath>
<clipPath id="clip3_2_54">
<rect width="1728" height="1117" fill="white" transform="translate(20 2294)"/>
</clipPath>
</defs>
</svg>
